<svg width="180" height="230" viewBox="0 0 180 230" fill="none" xmlns="http://www.w3.org/2000/svg">
<g clip-path="url(#clip0_132_900)">
<rect width="180" height="230" fill="#D6C6D6"/>
<path d="M69.6589 129.09C72.4803 135.226 76.3379 140.994 77.5988 147.626C78.5101 152.391 78.3353 158.019 82.0056 161.107C83.6805 162.331 85.6049 163.156 87.636 163.52C95.9878 165.591 106.612 165.858 111.206 158.438C113.203 155.199 113.503 151.197 113.703 147.372C115.101 125.139 123.99 102.905 125.4 80.6965C125.812 74.1153 118.721 67.4325 117.348 60.9911C116.512 56.7995 114.754 52.8553 112.205 49.4549C97.7605 30.7913 69.3219 44.0553 62.3682 63.2017C56.0513 80.6076 62.4057 113.336 69.6589 129.09Z" fill="#FDDFA1"/>
<path d="M50.7706 178.906C47.6996 180.545 43.9918 183.874 45.9393 186.783C46.4406 187.428 47.0758 187.953 47.7994 188.32C57.6743 193.974 69.8588 190.976 81.1443 189.921C97.074 188.422 113.091 191.192 129.083 190.76C131.243 190.76 133.577 190.531 135.2 189.083C136.122 188.124 136.73 186.899 136.94 185.575C137.151 184.251 136.953 182.893 136.374 181.688C135.166 179.301 133.329 177.304 131.068 175.92C119.433 167.865 104.514 166.938 90.445 166.938C84.3153 166.938 75.7637 165.4 69.8338 167.179C63.1673 169.174 56.9752 175.603 50.7706 178.906Z" fill="#7DC3FF"/>
<path d="M51.7951 217.173L145.313 218.838C148.573 218.694 151.83 219.176 154.913 220.261C161.655 223.145 164.688 231.085 166.149 238.378C166.911 242.19 167.397 246.573 165.2 249.813C162.167 254.475 155.662 254.768 150.219 254.564L41.4459 250.588C28.5498 250.118 13.8561 252.798 19.2118 235.545C24.118 219.6 36.9017 216.907 51.7951 217.173Z" fill="#7DC3FF"/>
<path d="M68.6357 82.335C69.7236 81.7172 70.9049 81.2878 72.1313 81.0645C73.3204 80.8384 74.5301 80.7447 75.7392 80.785C76.9476 80.8071 78.1496 80.9691 79.3221 81.2677C80.5309 81.5491 81.6864 82.0298 82.7427 82.6907C81.5649 82.9953 80.3608 83.1826 79.1473 83.2497C77.9738 83.326 76.8253 83.3514 75.6643 83.326C74.5032 83.3006 73.3547 83.1989 72.1937 83.0592C70.9896 82.9211 69.7993 82.6789 68.6357 82.335Z" fill="black"/>
<path d="M77.8863 95.142C77.8863 97.1875 76.8626 98.8519 75.6018 98.8519C74.3409 98.8519 73.3047 97.1875 73.3047 95.142C73.3047 93.0965 74.3284 91.4321 75.6018 91.4321C76.8751 91.4321 77.8863 93.0838 77.8863 95.142Z" fill="black"/>
<path d="M117.948 80.8995C116.915 81.2681 115.849 81.532 114.765 81.6872C113.738 81.8344 112.705 81.9193 111.668 81.9413C110.626 81.9599 109.583 81.909 108.547 81.7888C107.456 81.6778 106.383 81.4303 105.352 81.052C106.304 80.4592 107.346 80.0299 108.435 79.7815C109.479 79.5308 110.546 79.3988 111.619 79.3876C112.695 79.3707 113.77 79.4687 114.827 79.6798C115.93 79.8947 116.987 80.3077 117.948 80.8995Z" fill="black"/>
<path d="M109.509 95.142C109.509 97.1875 110.532 98.8519 111.806 98.8519C113.079 98.8519 114.09 97.1875 114.09 95.142C114.09 93.0965 113.067 91.4321 111.806 91.4321C110.545 91.4321 109.509 93.0838 109.509 95.142Z" fill="black"/>
<path d="M89.1845 88.9038C89.3219 89.2214 94.0533 100.935 87.3744 106.017C87.3744 106.017 86.8126 109.054 92.5677 110.706" stroke="black" stroke-miterlimit="10"/>
<path d="M86.3379 119.853C86.3379 119.853 93.3539 122.216 98.8219 119.967" stroke="black" stroke-miterlimit="10"/>
<path d="M18.8369 243.943L24.3174 218.266L25.0789 214.556C25.1663 214.175 25.2412 213.794 25.3536 213.412C26.088 210.231 27.0904 207.119 28.3498 204.112C28.8991 202.783 29.4983 201.474 30.1475 200.186C30.2473 199.97 30.3472 199.767 30.4596 199.564C35.2107 190.401 42.2564 182.678 50.8835 177.178L71.5945 163.965L75.3397 161.601L75.9265 155.338L77.3496 140.092" stroke="black" stroke-miterlimit="10"/>
<path d="M107.474 138.923L107.998 144.59L109.022 155.503L109.583 161.602L133.99 177.178C139.395 180.619 144.2 184.952 148.209 189.997L148.484 190.366C149.37 191.471 150.207 192.627 150.981 193.809C153.952 198.205 156.313 202.998 157.997 208.051V208.051C158.708 210.179 159.3 212.347 159.769 214.544L159.969 215.496L166.049 243.93" stroke="black" stroke-miterlimit="10"/>
<path d="M132.056 70.7354C132.122 73.1408 132.122 75.4658 132.056 77.7104C132.056 77.7104 132.056 77.7993 132.056 77.8247C131.644 106.17 124.228 122.394 115.826 131.669C113.334 134.459 110.472 136.883 107.325 138.872C106.401 139.457 105.49 139.965 104.603 140.422C103.269 141.111 101.893 141.714 100.483 142.226C97.6866 143.318 94.7366 143.948 91.7446 144.094C90.358 144.096 88.973 143.998 87.5999 143.802C85.1214 143.461 82.7039 142.759 80.4216 141.718C79.3049 141.221 78.2244 140.644 77.1882 139.99C75.2327 138.719 73.4273 137.222 71.8076 135.531C60.497 124.096 55.6782 103.692 53.5309 88.8019C53.4436 88.192 53.3562 87.5314 53.2813 86.9978C52.8318 83.7199 52.5322 80.7596 52.295 78.2948C51.8706 73.8354 51.7332 70.9767 51.6084 70.7481" stroke="black" stroke-miterlimit="10"/>
<path d="M75.3281 161.602C75.3281 161.602 92.2315 172.744 109.522 161.602" stroke="black" stroke-miterlimit="10"/>
<path d="M73.1309 163.012C73.1309 163.012 92.4437 180.316 111.732 163.012" stroke="black" stroke-miterlimit="10"/>
<path d="M107.936 144.59C98.1357 147.969 82.9676 153.013 75.9141 155.338L77.3372 140.092C80.5068 142.092 84.0542 143.39 87.7489 143.904C89.1221 144.1 90.5071 144.197 91.8936 144.196C96.3686 143.921 100.733 142.669 104.69 140.524C105.576 140.067 106.487 139.559 107.411 138.974L107.936 144.59Z" fill="black"/>
<path d="M148.159 189.997C144.151 184.952 139.345 180.619 133.94 177.178L109.534 161.602L108.972 155.503L107.948 144.59L107.424 138.923C110.572 136.934 113.433 134.51 115.925 131.72C124.265 122.445 131.68 106.221 132.155 77.8758C132.155 77.8758 132.155 77.8758 132.155 77.7615C132.155 77.6471 118.073 60.9909 116.924 47.1932C116.924 47.1932 102.642 76.0717 52.3442 78.3332C52.5814 80.798 52.881 83.7582 53.3304 87.0361C53.4053 87.6206 53.4927 88.2304 53.5801 88.8402C55.6774 103.769 60.4963 124.097 71.8068 135.531C73.4758 137.242 75.3361 138.747 77.3497 140.016L75.9266 155.262L75.3398 161.526L71.5946 163.889L50.8835 177.102C42.265 182.63 35.2362 190.38 30.5096 199.564C22.6446 195.753 16.3652 188.981 13.9932 177.559C5.40416 136.103 41.4581 117.554 37.7129 75.6016C33.9677 33.6497 93.8911 -6.98089 130.944 41.1203C130.944 41.1203 147.535 43.6613 145.151 84.7111C142.529 129.026 171.629 169.835 148.159 189.997Z" fill="black"/>
<path d="M148.433 190.366C147.21 191.983 145.962 193.576 144.688 195.143C143.665 196.413 142.641 197.684 141.605 198.878C141.118 199.463 140.631 200.034 140.132 200.606C139.642 201.354 139.059 202.033 138.396 202.626C138.345 202.572 138.298 202.512 138.259 202.448C138.084 202.207 137.834 201.978 137.635 201.749C137.148 201.216 136.648 200.682 136.149 200.161C135.013 198.891 133.852 197.773 132.654 196.617C131.455 195.46 130.406 194.482 129.245 193.453C128.226 192.362 127.052 191.433 125.762 190.696C123.028 189.527 120.195 192.742 118.272 194.304C115.727 196.381 113.285 198.586 110.956 200.911C110.482 201.381 109.97 202.181 109.396 202.499C109.319 202.535 109.247 202.582 109.184 202.639C109.184 202.639 109.184 202.639 109.034 202.55C108.656 202.289 108.309 201.987 107.998 201.648L103.853 198.027L100.233 194.863C99.1111 193.717 97.8528 192.718 96.4873 191.89C93.254 190.277 90.6573 192.602 88.3852 194.698L80.7949 201.686C78.3855 199.551 75.9011 197.493 73.3044 195.6C71.8438 194.546 70.2084 193.059 68.3108 192.856C67.5213 192.845 66.7391 193.01 66.0189 193.339C65.2986 193.669 64.6578 194.154 64.1412 194.762C62.5557 196.21 60.9827 197.684 59.3972 199.145L57.1376 201.229C56.5384 201.788 55.4772 203.16 54.6408 203.465C54.4161 203.554 54.3786 203.63 54.3786 203.668C54.2593 203.55 54.1196 203.455 53.9667 203.388C53.632 203.13 53.3337 202.827 53.0803 202.486C52.3396 201.741 51.628 200.966 50.9455 200.161C49.5543 198.543 48.2539 196.846 47.0505 195.079C46.7699 194.607 46.3197 194.265 45.7954 194.125C45.271 193.985 44.7137 194.058 44.2416 194.33C40.5038 196.996 36.9539 199.926 33.6177 203.096C32.3693 202.181 31.2582 201.216 30.1346 200.212C29.4854 201.5 28.8862 202.808 28.3369 204.138C29.7518 205.358 31.2124 206.522 32.7188 207.632C33.1123 207.866 33.5708 207.96 34.0226 207.9C34.4744 207.84 34.8939 207.63 35.2156 207.302C38.2334 204.335 41.4449 201.581 44.8283 199.056C46.7262 201.853 48.943 204.412 51.4324 206.679C54.9279 209.741 57.9116 206.107 60.4958 203.719L65.2522 199.323C65.8015 198.815 66.9126 197.366 67.5992 197.163C68.2859 196.96 68.9975 197.709 69.6217 198.141C73.0227 200.512 76.2557 203.123 79.2968 205.955C79.689 206.335 80.2097 206.546 80.7512 206.546C81.2926 206.546 81.8133 206.335 82.2056 205.955L90.1954 198.573C91.1497 197.496 92.2364 196.548 93.4287 195.753C94.9018 195.016 96.5123 197.15 97.536 198.052C100.22 200.377 102.879 202.728 105.563 205.053C106.503 206.111 107.782 206.795 109.171 206.984C109.862 206.926 110.534 206.72 111.141 206.378C111.748 206.036 112.276 205.567 112.692 205.002C114.982 202.637 117.39 200.394 119.907 198.281C121.156 197.239 122.404 196.21 123.715 195.244C123.927 195.092 124.164 194.876 124.414 194.724L124.664 194.978C125.213 195.575 125.912 196.07 126.536 196.617C129.033 198.827 131.401 201.144 133.64 203.566C135.438 205.485 137.385 208.178 140.256 206.387C141.564 205.395 142.717 204.209 143.677 202.867C144.925 201.381 146.174 199.894 147.422 198.383C148.671 196.871 149.807 195.371 150.968 193.847C150.156 192.627 149.32 191.433 148.433 190.366ZM138.446 202.677C138.534 202.677 138.633 202.842 138.633 202.88C138.561 202.818 138.494 202.75 138.434 202.677H138.446Z" fill="black"/>
<path d="M159.744 214.556C159.275 212.36 158.683 210.192 157.971 208.064C156.723 206.895 155.412 205.739 154.126 204.583C153.899 204.365 153.628 204.202 153.332 204.103C153.035 204.005 152.721 203.975 152.412 204.015C152.103 204.055 151.806 204.165 151.544 204.335C151.281 204.506 151.059 204.734 150.893 205.002C148.895 207.734 146.823 210.415 144.651 213.044C143.627 214.315 142.603 215.585 141.567 216.792L140.094 218.508C139.605 219.255 139.021 219.934 138.359 220.528C138.307 220.473 138.261 220.414 138.221 220.35C138.026 220.109 137.818 219.88 137.597 219.664C137.11 219.117 136.611 218.584 136.112 218.063C134.975 216.856 133.814 215.674 132.616 214.518C131.418 213.362 130.369 212.384 129.208 211.355C128.185 210.267 127.012 209.339 125.725 208.598C122.991 207.442 120.157 210.643 118.234 212.219C115.686 214.287 113.244 216.488 110.919 218.813C110.444 219.283 109.932 220.083 109.358 220.413L109.146 220.54C109.146 220.54 109.146 220.54 108.996 220.451C108.616 220.195 108.268 219.892 107.96 219.549L103.815 215.929L100.195 212.765C99.0734 211.619 97.8152 210.62 96.4497 209.792C93.2163 208.178 90.6197 210.503 88.3476 212.613L80.7573 219.6C78.3478 217.453 75.8635 215.395 73.2668 213.502C71.8062 212.447 70.1708 210.961 68.2732 210.758C67.4837 210.747 66.7015 210.912 65.9812 211.241C65.261 211.57 64.6201 212.056 64.1035 212.663C62.5181 214.112 60.9451 215.585 59.3596 217.047L57.1 219.13C56.5008 219.689 55.4396 221.074 54.6032 221.366C54.3785 221.455 54.341 221.531 54.341 221.57C54.2216 221.452 54.082 221.357 53.929 221.29C53.5976 221.033 53.2997 220.734 53.0427 220.401C52.3061 219.638 51.5945 218.863 50.9079 218.063C49.5167 216.445 48.2163 214.748 47.0129 212.981C46.7323 212.509 46.2821 212.167 45.7577 212.027C45.2334 211.887 44.676 211.96 44.204 212.231C40.466 214.902 36.9161 217.836 33.58 221.011C30.6221 218.726 27.8538 216.197 25.3031 213.451C25.1908 213.832 25.1159 214.213 25.0285 214.594L24.2295 218.304C26.8637 220.927 29.689 223.344 32.6812 225.533C33.0741 225.769 33.5331 225.865 33.9854 225.805C34.4377 225.745 34.8574 225.533 35.178 225.203C38.1957 222.237 41.4073 219.482 44.7907 216.958C46.6924 219.752 48.9088 222.31 51.3948 224.581C54.8903 227.63 57.874 223.996 60.4582 221.608L65.2146 217.224C65.7639 216.716 66.875 215.255 67.5616 215.065C68.2482 214.874 68.9598 215.598 69.584 216.03C72.9851 218.401 76.2181 221.012 79.2592 223.844C79.6514 224.224 80.1721 224.435 80.7136 224.435C81.255 224.435 81.7757 224.224 82.168 223.844L90.1577 216.475C91.1118 215.393 92.1985 214.441 93.3911 213.642C94.8642 212.905 96.4747 215.039 97.4984 215.941C100.182 218.279 102.842 220.617 105.526 222.942C106.466 224 107.744 224.684 109.133 224.873C109.826 224.818 110.498 224.613 111.106 224.271C111.713 223.929 112.241 223.459 112.654 222.891C114.951 220.54 117.348 218.292 119.87 216.17C121.118 215.128 122.367 214.099 123.677 213.133C123.89 212.981 124.127 212.765 124.377 212.613L124.626 212.867C125.176 213.464 125.875 213.959 126.499 214.506C128.996 216.716 131.363 219.033 133.602 221.455C135.4 223.386 137.347 226.067 140.219 224.288C141.511 223.276 142.647 222.073 143.589 220.718C144.846 219.245 146.095 217.75 147.335 216.233C149.22 213.896 151.08 211.507 152.865 209.106C155.212 211.228 157.559 213.362 159.881 215.458L159.744 214.556ZM138.434 220.566C138.596 220.655 138.796 221.023 138.434 220.566V220.566Z" fill="black"/>
<path d="M109.509 42.3652C107.599 44.6497 105.512 46.7741 103.267 48.7177C101.043 50.7034 98.6949 52.541 96.2382 54.219C93.7454 55.8602 91.1231 57.288 88.3983 58.4879C85.6624 59.6659 82.7879 60.4774 79.8467 60.9018C81.2449 60.3809 82.6556 60.0252 83.9914 59.4026C85.3272 58.7801 86.6755 58.2211 87.9988 57.5985C90.5676 56.2456 93.0675 54.7614 95.4892 53.1518C97.986 51.5383 100.296 49.785 102.643 48.0698C103.816 47.1677 104.952 46.2403 106.088 45.2874C107.224 44.3345 108.385 43.3308 109.509 42.3652Z" fill="white"/>
<path d="M107.475 36.5845C105.109 39.1336 102.442 41.3741 99.5347 43.2546C98.0843 44.2231 96.5606 45.0728 94.978 45.7956C93.3996 46.555 91.715 47.0607 89.9844 47.2948C91.5373 46.5896 93.0503 45.7964 94.5161 44.919C95.9767 44.055 97.4124 43.153 98.8356 42.2128C100.259 41.2726 101.682 40.3324 103.105 39.3923C104.528 38.4521 105.951 37.4992 107.475 36.5845Z" fill="white"/>
<path d="M100.732 30.1558C100.351 31.0101 99.8176 31.7854 99.1594 32.4427C98.5279 33.1237 97.8149 33.7213 97.0371 34.2214C95.4974 35.2626 93.6924 35.8234 91.8438 35.8349C92.6427 35.3394 93.4167 34.9455 94.1658 34.5644C94.9148 34.1832 95.6514 33.6878 96.3755 33.205C97.8361 32.2267 99.2093 31.1976 100.732 30.1558Z" fill="white"/>
</g>
<defs>
<clipPath id="clip0_132_900">
<rect width="180" height="230" fill="white"/>
</clipPath>
</defs>
</svg>
