<svg width="180" height="230" viewBox="0 0 180 230" fill="none" xmlns="http://www.w3.org/2000/svg">
<g clip-path="url(#clip0_132_962)">
<rect width="180" height="230" fill="#D6C6D6"/>
<path d="M38.2741 114.318C40.5327 118.153 43.973 121.08 47.0457 124.273C57.7343 135.352 75.5138 137.717 74.5553 163.896C74.2139 173.117 64.6019 184.623 67.32 193.429C72.4412 210.107 93.4246 219.475 108.959 212.031C110.824 211.257 112.462 210.005 113.712 208.397C114.836 206.557 115.474 204.454 115.564 202.289C117.192 185.679 108.683 168.132 114.986 152.724C116.693 148.542 119.398 144.867 121.473 140.858C129.207 125.984 127.749 108.077 125.727 91.4127C124.979 85.2922 124.046 78.8243 120.251 74.0402C116.089 68.7749 109.313 66.5299 102.826 65.1401C90.7327 62.4674 56.592 56.6543 50.3022 70.7661C47.584 76.8732 51.8122 84.4503 48.1749 91.1588C43.5659 99.5911 31.2096 102.224 38.2741 114.318Z" fill="#FDDFA1"/>
<path d="M28.2801 232.638C34.2941 220.023 44.5101 208.784 57.7725 204.975C61.0421 204.027 64.6401 203.639 67.7784 204.975C70.4046 206.111 72.4399 208.396 74.8035 210.107C83.0498 216.08 94.2243 214.29 104.283 213.1C113.756 211.983 123.302 211.638 132.83 212.071C135.692 212.205 138.686 212.459 141.076 214.062C143.702 215.84 145.147 218.967 146.328 221.974C153.035 239.181 156.062 257.645 155.205 276.136L58.1139 281.067C47.1363 281.628 26.0741 285.156 20.2045 272.461C15.2803 261.77 23.763 242.166 28.2801 232.638Z" fill="#FF6834"/>
<path d="M56.6572 109.48C56.608 111.154 57.0368 112.806 57.8916 114.237C58.9532 115.457 60.3703 116.3 61.9359 116.643C66.65 118.046 71.6398 118.059 76.5377 118.046C78.2316 118.046 80.1225 117.966 81.2911 116.709C82.4598 115.453 82.4861 113.502 82.4073 111.765L81.9739 101.756C82.0244 100.714 81.7683 99.6814 81.2386 98.789C80.2669 97.4527 78.3629 97.4527 76.7346 97.4527C72.7953 97.5997 61.7784 95.9693 58.5612 98.1877C55.3441 100.406 56.434 105.671 56.6572 109.48Z" fill="white"/>
<path d="M100.397 112.741C100.394 113.53 100.588 114.307 100.962 114.999C101.717 115.864 102.77 116.4 103.903 116.496C108.428 117.407 113.026 117.895 117.638 117.952C118.93 118.117 120.235 117.789 121.302 117.03C121.761 116.48 122.105 115.842 122.315 115.153C122.525 114.464 122.596 113.739 122.523 113.021C122.602 109.674 122.457 106.326 122.09 102.999C122.142 102.588 122.108 102.171 121.99 101.774C121.872 101.378 121.674 101.011 121.407 100.698C121.141 100.385 120.812 100.133 120.443 99.9586C120.074 99.7839 119.673 99.6905 119.267 99.6844C115.537 98.9628 104.599 96.5707 101.356 99.2702C98.1125 101.97 100.187 109.039 100.397 112.741Z" fill="white"/>
<path d="M12.0635 272.902L18.7997 241.391C22.13 225.745 31.1862 211.975 44.1295 202.877C44.8911 202.329 45.6659 201.821 46.4538 201.314L47.0446 200.926L53.7284 196.663L60.5434 192.307L72.624 184.609L73.832 171.58L75.2633 156.212" stroke="black" stroke-miterlimit="10"/>
<path d="M168.206 272.902L161.482 241.391C158.366 226.715 150.209 213.652 138.477 204.548C138.398 204.548 138.332 204.428 138.241 204.374C136.835 203.292 135.378 202.263 133.881 201.314L128.812 198.067L124.676 195.394L107.606 184.516L105.4 160.889L105.098 157.682V157.241" stroke="black" stroke-miterlimit="10"/>
<path d="M132.896 88.2722C129.547 119.155 122.64 137.062 115.484 147.379C112.749 151.506 109.237 155.04 105.15 157.776C98.0982 162.279 92.5832 161.25 92.5832 161.25C86.4488 161.34 80.4246 159.587 75.2633 156.212C72.1873 154.165 69.4185 151.676 67.0433 148.822C49.0406 127.521 47.3467 86.2944 47.3467 86.2944" stroke="black" stroke-miterlimit="10"/>
<path d="M66.9777 188.204C66.9777 188.204 65.5595 216.628 92.5701 216.628C92.5701 216.628 118.346 214.958 118.346 191.438" stroke="black" stroke-miterlimit="10"/>
<path d="M61.4766 191.719C61.4766 191.719 61.6866 221.907 92.9911 221.907C92.9911 221.907 123.639 218.339 123.639 194.819" stroke="black" stroke-miterlimit="10"/>
<path d="M60.5446 192.307V272.888H47.0459V200.926L53.7165 196.663L60.5446 192.307Z" fill="black"/>
<path d="M138.174 204.374V272.902H124.675V195.487L128.811 198.16L133.814 201.354C135.311 202.263 136.769 203.292 138.174 204.374Z" fill="black"/>
<path d="M48.7652 99.1765C48.7652 99.1765 42.7512 92.7887 36.7372 97.0383C30.7232 101.288 36.921 127.574 54.4116 124.433" stroke="black" stroke-miterlimit="10"/>
<path d="M40.8867 106.754C40.8867 106.754 48.5815 103.988 50.9583 112.687" stroke="black" stroke-miterlimit="10"/>
<path d="M45.2461 113.155C45.2461 113.155 45.3905 108.464 48.8834 108.544" stroke="black" stroke-miterlimit="10"/>
<path d="M131.793 99.1766C131.793 99.1766 137.741 92.722 143.808 96.9048C149.874 101.088 143.926 127.44 126.409 124.5" stroke="black" stroke-miterlimit="10"/>
<path d="M139.79 106.66C139.79 106.66 132.069 103.987 129.784 112.714" stroke="black" stroke-miterlimit="10"/>
<path d="M135.509 113.128C135.509 113.128 135.312 108.424 131.819 108.545" stroke="black" stroke-miterlimit="10"/>
<path d="M121.813 74.2271C121.813 74.2271 99.2273 65.3805 54.411 75.3764C54.411 75.3764 50.2222 91.2923 52.0605 97.1321C52.6197 98.718 52.7061 100.437 52.309 102.072C51.9118 103.708 51.0488 105.188 49.8283 106.326L45.8889 94.9672C45.8889 94.9672 41.1355 88.7933 40.8466 76.2583C40.8466 76.2583 19.1803 53.1128 45.8889 22.5372C66.334 -0.875666 120.342 17.8599 128.024 55.3311C128.024 55.3311 149.257 67.3582 131.123 101.261C131.123 101.261 127.892 101.729 128.116 94.9137C128.291 87.5027 126.077 80.2372 121.813 74.2271Z" fill="black"/>
<path d="M62.999 90.2637C68.1765 90.1191 73.3472 90.7403 78.3492 92.1078" stroke="black" stroke-width="2" stroke-miterlimit="10"/>
<path d="M70.6674 110.642C72.0236 110.642 73.1229 108.859 73.1229 106.66C73.1229 104.461 72.0236 102.678 70.6674 102.678C69.3113 102.678 68.2119 104.461 68.2119 106.66C68.2119 108.859 69.3113 110.642 70.6674 110.642Z" fill="black"/>
<path d="M118.491 89.2212C113.288 89.5895 108.143 90.5578 103.154 92.1077" stroke="black" stroke-width="2" stroke-miterlimit="10"/>
<path d="M110.822 110.642C112.178 110.642 113.277 108.859 113.277 106.66C113.277 104.461 112.178 102.678 110.822 102.678C109.466 102.678 108.366 104.461 108.366 106.66C108.366 108.859 109.466 110.642 110.822 110.642Z" fill="black"/>
<path d="M86.5179 103.359C86.6755 103.987 87.0957 111.578 83.7998 121.654C83.7998 121.654 85.3361 124.768 91.7835 124.915" stroke="black" stroke-miterlimit="10"/>
<path d="M85.7949 138.906C90.3014 140.024 95.0331 139.749 99.3856 138.118" stroke="black" stroke-miterlimit="10"/>
<path d="M89.6416 141.793C91.0501 142.125 92.5184 142.088 93.9092 141.686" stroke="black" stroke-miterlimit="10"/>
<path d="M56.8675 31.9585C57.6701 39.6686 59.985 47.1363 63.6751 53.9194C67.3651 60.7024 72.3553 66.6628 78.3499 71.4476C77.5489 70.913 76.7479 70.3651 75.96 69.8039C70.0001 65.5446 65.1478 59.8739 61.8216 53.2806C58.4954 46.6874 56.7951 39.3696 56.8675 31.9585Z" fill="white"/>
<path d="M73.8975 49.291C77.259 57.7768 82.1175 66.0622 90.1406 70.6726C81.1589 67.7593 75.4469 58.3515 73.8975 49.291Z" fill="white"/>
<path d="M55.6465 54.4492C58.4807 61.8534 63.5345 68.161 70.0907 72.4765C62.4746 69.9508 56.8939 62.3738 55.6465 54.4492Z" fill="white"/>
<path d="M66.3742 43.2107C63.8517 38.6423 62.3214 33.5764 61.8865 28.3549C61.4516 23.1334 62.1222 17.8777 63.8531 12.9424C62.1647 23.0864 63.0322 33.5006 66.3742 43.2107Z" fill="white"/>
<path d="M44.4583 42.4224C40.2957 39.4156 40.9392 31.9053 42.0422 27.4419C42.3442 29.7003 42.4361 32.8942 42.6068 35.1794C42.8694 37.6917 42.9614 40.2708 44.4583 42.4224Z" fill="white"/>
<path d="M48.1216 30.2483C47.3006 28.8812 46.8064 27.3372 46.6787 25.7403C46.5509 24.1434 46.7933 22.5384 47.3863 21.0542C47.987 24.0786 48.2338 27.1648 48.1216 30.2483Z" fill="white"/>
<path d="M57.4053 96.6377V110.469C57.4053 112.118 58.0482 113.7 59.1929 114.868C60.3376 116.035 61.8906 116.693 63.5112 116.696H76.7605C78.3811 116.693 79.9341 116.035 81.0788 114.868C82.2235 113.7 82.8664 112.118 82.8664 110.469V96.6377H57.4053Z" stroke="black" stroke-miterlimit="10"/>
<path d="M121.078 96.6377V110.469C121.078 112.12 120.434 113.704 119.286 114.872C118.138 116.04 116.582 116.696 114.959 116.696H101.828C101.024 116.696 100.229 116.535 99.4864 116.222C98.744 115.909 98.0695 115.451 97.5012 114.872C96.933 114.294 96.4823 113.608 96.1748 112.852C95.8673 112.096 95.709 111.287 95.709 110.469V96.6377H121.078Z" stroke="black" stroke-miterlimit="10"/>
<path d="M82.8145 100.821C82.8145 100.821 90.2729 96.4507 95.6567 100.821" stroke="black" stroke-miterlimit="10"/>
<path d="M105.452 160.983C95.9185 164.257 81.9076 168.907 73.832 171.58L75.2633 156.212C80.4246 159.587 86.4488 161.339 92.5832 161.25C92.5832 161.25 98.0982 162.279 105.15 157.775L105.452 160.983Z" fill="black"/>
</g>
<defs>
<clipPath id="clip0_132_962">
<rect width="180" height="230" fill="white"/>
</clipPath>
</defs>
</svg>
