<svg width="291" height="10" viewBox="0 0 291 10" fill="none" xmlns="http://www.w3.org/2000/svg">
<path d="M95.197 2.94484L96.2297 3.13477C95.8755 3.26672 95.6253 3.3669 95.3318 3.48288C95.9725 4.04859 96.616 3.25656 97.1183 3.49673L97.973 2.42863L98.2184 2.48915C98.0003 2.84301 97.7995 3.19674 97.5566 3.60776L98.8029 3.62526C99.2285 3.19745 99.6624 2.75405 100.079 2.32112L101.041 2.12289L100.919 1.72469C101.353 1.65958 101.796 1.58922 102.056 1.55637L101.772 2.41335L102.124 2.94474C102.274 3.03182 102.486 3.15476 102.66 3.13286C103.688 3.01942 104.746 3.04594 105.755 3.21043L105.373 2.17139C105.644 2.36577 105.831 2.59631 105.919 2.84309C106.007 3.08988 105.993 3.3455 105.877 3.58789C106.898 3.63801 107.843 3.82853 108.703 3.34598C108.909 3.22022 109.381 3.2585 109.72 3.21994C109.688 3.37561 109.666 3.53639 109.602 3.78556C110.106 3.70961 110.444 3.65035 110.705 3.60714L111.064 2.95694L111.466 2.99569L111.309 3.75333C111.837 3.60985 112.331 3.47696 112.816 3.33896L113.095 3.7361C114 3.66781 114.93 3.59416 115.774 3.52111L115.113 2.10568L113.704 2.96505C113.422 2.086 112.456 2.51744 111.733 2.5275C112.326 2.16594 111.442 2.01126 111.435 1.7211C111.589 1.57497 111.751 1.42359 111.998 1.20946L111.152 1.13743L110.747 0.238495C111.436 0.249395 112.125 0.291364 112.795 0.271293C114.623 0.207134 116.486 0.122018 118.314 0.0578589C118.851 0.0634199 119.387 0.0874894 119.919 0.129943C120.579 0.201004 121.254 0.205236 121.915 0.142412C123.376 -0.0218016 124.873 -0.0441753 126.348 0.0761979C127.298 0.0749709 128.267 0.166894 129.183 0.207352C130.665 0.238808 132.155 0.233938 133.776 0.243728C133.582 0.519687 133.456 0.701916 133.304 0.93095L134.416 1.14626L134.241 2.22013L136.593 2.56183L135.683 1.68702L135.513 0.73984L134.442 0.773003C134.655 0.590189 134.747 0.428903 134.938 0.375797C135.37 0.248507 135.914 0.0323679 135.98 0.591591C136.822 0.487444 137.477 -0.185456 138.518 0.35682L137.207 0.89424L137.596 1.52901L136.272 1.51722L138.293 2.59699C138.729 1.88928 139.081 1.30653 139.484 0.640502L140.717 1.60124L141.698 0.687757L143.462 0.862384L140.782 2.49728L141.868 2.72834C141.984 2.48917 142.076 2.29682 142.167 2.12519L143.506 2.35972L144.194 0.888532C144.277 0.711781 144.369 0.540159 144.469 0.342565L149.379 0.174706C149.222 0.522967 149.139 0.710075 149.098 0.819175L150.047 2.22749L148.994 2.31232L147.396 1.77379L147.215 1.88385C147.171 1.80007 147.114 1.7189 147.044 1.64143C146.892 1.53837 146.726 1.44247 146.549 1.35457L146.147 2.40926C146.52 2.31865 146.693 2.27603 146.91 2.22793L146.823 2.61718L148.08 2.71232L146.816 3.778C148.034 4.08589 148.569 3.50707 149.572 3.14792L148.973 4.00698C150.721 3.85527 152.383 4.11352 154.001 3.63104C154.522 4.31155 155.893 4.06392 156.79 4.03196C159.487 3.88939 162.176 4.0889 164.833 4.06579C167.106 4.0349 169.372 4.0507 171.69 4.08688C172.475 4.09195 173.257 4.36132 174.043 4.10209L174.959 4.12182L176.384 3.25197C175.702 3.1322 175.8 2.47345 174.721 2.53255L175.274 3.0781C174.614 3.18619 173.998 3.2888 173.234 3.40797L174.014 3.98311L172.552 3.29856L172.696 3.11625L171 2.91003L170.981 2.83761L173.66 2.65371L173.975 1.58925L172.503 0.878881L175.375 0.745492C175.75 0.72742 176.204 0.776167 176.454 0.665656C177.687 0.113217 179.046 0.4927 180.368 0.380138L180.825 0.900452L181.535 0.719455L182.432 1.06581C182.707 0.898128 182.947 0.751368 183.292 0.614303L184.188 1.27677L183.777 1.93768L184.495 2.08829C185.443 1.26831 185.449 1.18017 184.624 0.548339L187.097 0.847765L187.253 0.437308C188.849 0.51463 190.385 0.628661 191.92 0.659763C192.66 0.67031 193.414 0.504551 194.163 0.489132C194.757 0.502074 195.349 0.5379 195.935 0.596373C196.446 0.637631 196.964 0.642843 197.477 0.611882C199.868 0.477922 202.279 0.526082 204.652 0.7552C205.454 0.801604 206.314 0.697352 207.082 0.733628C207.759 0.726813 208.434 0.774545 209.089 0.875537C209.536 1.00684 209.944 1.18091 210.295 1.39078C210.527 1.2493 210.905 1.01873 211.431 0.792348L213.228 1.23108C213.322 1.17344 213.693 1.02065 214.116 0.836429L216.221 1.03468C215.501 1.5681 215.521 1.65089 216.245 2.07093L216.078 2.75091C215.51 3.03458 214.967 3.30254 214.175 3.69137C215.212 3.72064 215.826 3.86157 215.538 4.59419C216.208 4.18546 216.7 3.96967 217.233 3.68624L217.867 3.9618C218.174 4.40539 218.678 4.3709 219.249 4.17013C219.63 4.0231 219.938 3.818 220.14 3.57608C220.343 3.33417 220.433 3.06426 220.401 2.79431L219.429 2.23082C219.571 1.94485 219.729 1.65877 219.93 1.28431C220.756 1.24246 221.749 1.22537 222.663 1.1622C223.576 1.09904 224.82 1.39122 225.983 1.18645C226.295 1.13252 226.719 1.34733 227.131 1.45337C227.788 1.26238 228.479 0.988236 229.255 1.37684L229.078 2.36783L229.784 2.39934C230.028 2.0194 230.229 1.69672 230.489 1.26486L233.937 1.5266L234.484 2.14997C234.72 1.82709 234.838 1.6501 235.007 1.43131L236.225 1.37125C236.004 1.61111 235.843 1.78323 235.673 1.96057L236.979 2.31967L237.029 1.44876L238.379 1.80238L241.264 1.48236L240.723 2.19076L241.735 2.23576C242.059 3.08709 242.092 3.96809 241.831 4.82615C244.255 4.92823 246.689 4.90312 249.105 4.75115C251.048 5.14223 253.413 4.90865 255.707 5.03308C258.002 5.15751 260.344 5.07431 262.662 5.08976C262.694 4.27077 263.799 4.90074 264.43 4.69438L264.78 4.03908L265.402 4.18515C265.957 4.0674 266.425 3.96058 266.997 3.83235L267.085 4.96664L269.025 5.21265L269.609 4.85633C269.78 4.8727 269.95 4.89581 270.116 4.92548C270.494 5.06645 270.909 5.16875 271.343 5.22813C274.472 5.27438 277.609 5.29464 280.729 5.31504C281.14 4.98062 281.524 4.67228 282.08 4.22806L282.59 5.13669L284.759 5.48477L283.911 3.89959L283.15 3.77517C283.215 3.58817 283.289 3.40629 283.413 3.1308L284.469 3.53826C286.178 2.88414 287.821 3.4379 289.5 3.69604L289.903 4.14418L288.739 4.67541L289.573 4.96516L289.116 5.14964L288.885 6.43633L289.692 5.94376L291 6.70191C290.05 7.0607 289.195 7.39292 288.22 7.76743L287.216 7.32855C286.999 7.37665 286.765 7.43524 286.505 7.49918C286.57 7.64902 286.626 7.79376 286.699 7.928C286.427 8.22003 285.738 8.20911 284.868 7.88851L284.919 7.47879L283.812 7.43963C283.338 7.29773 282.799 7.00597 282.54 7.08027C281.682 7.28816 280.926 7.01343 280.108 7.05005C279.29 7.08666 278.366 7.06182 277.443 7.07841C276.519 7.09501 275.638 7.05431 274.681 7.11259C273.054 7.19094 271.47 7.2949 269.894 7.33144C269.444 7.30717 268.998 7.2546 268.566 7.17459C267.918 7.74554 267.295 8.30424 266.698 8.85066L262.429 8.8691L262.51 8.27259L263.867 7.44466C261.913 7.23639 259.908 7.27109 257.98 7.54657L258.122 8.40586C257.736 8.64166 257.323 8.89318 256.896 9.22773L256.679 8.56069L255.107 8.38474C256.11 8.05668 256.793 7.82924 257.476 7.6018C256.29 7.35634 254.99 7.39484 253.854 7.70916L254.663 8.04574C254.526 8.12959 254.371 8.2239 254.199 8.3287L255.092 9.23469L253.35 9.24645L253.502 8.69097L252.72 8.39048L252.307 8.99959L251.515 8.65255C251.836 8.25655 252.125 7.91259 252.43 7.54778C250.718 7.3935 250.57 7.41002 250.132 7.6669L248.542 7.48073L247.287 9.29774L248.49 8.97352L248.623 9.05034L247.891 9.43357C246.007 9.53826 244.115 9.58391 242.222 9.57031C240.391 9.53084 238.504 10.0307 236.743 9.25491C236.423 9.45224 236.026 9.59956 235.588 9.68386C235.149 9.76816 234.682 9.78687 234.227 9.73828C231.834 9.57616 229.421 9.54559 227.02 9.647C225.447 9.74412 223.861 9.74266 222.288 9.64265C221.581 9.60078 220.834 10.0463 220.019 9.48176L221.086 8.90453L219.063 7.73149C217.859 7.64226 216.647 7.59162 215.434 7.57979C214.711 7.65387 214.008 7.78585 213.344 7.97218L212.011 7.60806L210.76 7.77196C210.634 7.98528 210.526 8.17777 210.408 8.36512L209.728 8.34896L209.802 7.79917C209.593 7.77986 209.47 7.74958 209.401 7.77078C208.675 8.04514 208.745 8.41259 208.939 8.88285L207.564 7.86091L205.653 8.46973L205.674 8.62508L206.677 8.66495L206.223 9.7096L205.329 9.47726L205.206 9.81493L202.241 9.7002L201.301 9.0018C200.692 8.70016 201.233 7.99172 200.026 7.81331C199.85 8.09951 199.665 8.37024 199.497 8.62012L200.615 9.86145L198.392 9.78837L197.858 8.94728C197.42 9.21452 196.928 9.4303 196.317 9.75053L195.355 8.50814C194.842 8.92616 194.38 9.28169 193.748 9.79381L193.617 8.69609L191.875 8.70785C191.643 8.84933 191.483 9.07323 191.269 9.2664L191.655 9.74573L191.6 10L190.682 9.8663L190.88 9.00991L188.441 8.32161L188.364 9.48291C189.072 9.56623 189.342 8.82337 190.13 9.34145C189.702 9.68635 189.363 10.0618 188.383 9.90255L187.472 8.9552L185.765 8.60915C185.558 8.73492 185.352 8.86067 184.835 9.09217C185.01 8.77488 185.081 8.45828 185.186 8.45757C185.324 8.4609 185.463 8.44566 185.59 8.41292C185.717 8.38018 185.83 8.33082 185.921 8.26848C186.011 8.20615 186.077 8.13246 186.113 8.05285C186.149 7.97325 186.155 7.88979 186.129 7.80867L181.183 7.95601L181.108 7.69744C180.946 7.86954 180.776 8.0365 180.503 8.30781L179.563 7.57831C178.977 7.87246 178.365 8.17196 177.668 8.52387L177.028 7.60059L176.023 8.21369L175.382 7.65835L173.371 7.72892L173.313 7.85886C172.87 7.76237 172.413 7.68917 171.949 7.64007C170.596 7.55074 169.235 7.46664 167.867 7.44996C166.925 7.44595 165.935 7.577 165.029 7.59347C161.866 7.57855 158.693 7.51704 155.521 7.47627L149.594 7.39189C149.143 7.38011 148.695 7.44228 148.3 7.57162L149.675 7.8681L149.492 8.61038L148.175 8.57262C148.353 8.33822 148.445 8.20807 148.538 8.07789C148.476 8.04204 148.457 7.96961 148.362 7.97544C147.696 7.8141 147.047 7.64227 146.373 7.51727C145.699 7.39227 145.154 7.20938 144.809 7.34645C144.022 7.58495 143.337 7.38228 142.614 7.37162C141.394 7.34876 140.183 7.36214 139.006 7.32344C136.705 7.28715 134.411 7.22487 132.119 7.1937C131.58 7.20288 131.042 7.23248 130.509 7.28231C130.37 7.29361 130.172 7.37268 130.075 7.33706C128.853 6.89446 128.396 7.44686 127.779 7.89668C127.34 8.15714 126.862 8.39284 126.35 8.60074L128.292 8.96073L129.356 8.63743L129.154 8.17241L129.432 8.12907L129.848 8.76887L132.449 8.23311C132.276 8.67475 132.136 9.01253 131.955 9.44905L131.083 9.07662C130.599 9.25931 130.05 9.37236 129.479 9.4068C128.909 9.44123 128.332 9.39611 127.795 9.27502L122.567 9.31029C122.576 8.57956 122.576 8.57955 123.413 8.21634L123.689 7.35424L122.294 6.96464C122.126 7.21451 121.991 7.40197 121.856 7.61016L122.507 7.84418C121.968 8.28829 121.447 8.73226 120.875 9.20769C119.914 9.1209 118.852 9.50638 117.959 8.96828C118.174 8.83728 118.45 8.73177 118.596 8.65305L120.347 9.01435L119.801 8.37027C120.022 8.15113 120.2 7.94781 120.422 7.75975C120.644 7.5717 120.953 7.35198 121.235 7.13761C119.446 7.00977 119.446 7.00976 118.775 7.3874L119.6 8.00887L118.242 8.03876C117.944 8.33615 117.568 8.67035 117.279 8.9625L117.016 9.27001L115.947 8.98703L115.949 9.11138L106.032 9.0125L105.625 8.77685L100.365 8.88492L100.518 8.35012C99.407 8.64768 98.1888 8.77694 96.9719 8.72641C95.4277 8.67589 93.8803 8.67599 92.3366 8.72663L93.3722 8.30505C92.9893 7.96044 92.6237 7.97328 92.1599 8.25624C91.9108 8.4082 91.5071 8.6545 91.2885 8.6197C89.7314 8.36074 88.1972 8.69757 86.6705 8.61977C85.1439 8.54198 83.6325 8.3708 82.1679 8.33923C81.165 8.29936 80.1473 8.3736 78.9716 8.39708C79.0953 8.10087 79.1617 7.96567 79.2192 7.815L78.4135 7.64423C78.973 7.35544 79.4894 7.08251 80.1522 6.7412L76.6825 6.29304L76.8135 8.14734L75.082 8.24712L74.9465 8.04593C75.1956 7.89397 75.4979 7.78313 75.8167 7.6307C75.7919 7.31994 75.7487 6.96785 75.7303 6.55859L74.4675 6.21471C74.2813 6.44398 74.1291 6.64194 73.977 6.83988L73.7404 6.78447C74.001 6.38369 73.5715 6.27775 73.0567 6.24495C72.6445 6.19935 72.2219 6.20046 71.8108 6.24819C70.7693 6.42104 69.7551 6.64035 68.6535 6.84989L68.4012 6.13127C68.2294 6.23607 68.0292 6.24259 68.0044 6.29977C67.8379 6.82036 67.5813 7.32918 67.2387 7.81811L66.5283 6.1491L64.8633 6.1137L64.7675 7.22332L62.8154 7.2054L62.9405 7.7072C62.8804 7.74389 62.8375 7.77009 62.8203 7.78057C61.7923 7.78751 60.7737 7.8203 59.7621 7.78567C58.4915 7.64091 57.199 7.57666 55.9064 7.59403C54.6913 7.73351 53.4437 7.74369 52.2215 7.62409C49.9755 7.34386 47.6469 7.61867 45.3642 7.25579C43.8326 7.1398 42.2821 7.14853 40.7556 7.28172L39.9985 6.58724C39.5433 6.86496 39.0601 7.06515 38.6724 7.24914C37.8093 6.4932 37.8093 6.49319 35.9494 6.69229L35.6979 7.10857L22.7697 6.45995L22.5452 5.44059L21.0661 5.90143L19.5326 5.53347C19.4553 5.58063 19.2737 5.63886 19.1098 5.70734C18.733 5.62144 18.3642 5.52359 18.005 5.41422C17.6295 5.27955 17.2681 5.13144 16.9228 4.9707C16.6142 5.19344 16.2083 5.36123 15.7495 5.45573C15.2907 5.55022 14.7967 5.56778 14.3215 5.50647C13.4467 5.35691 12.3645 5.64922 11.6442 5.03742C11.4486 4.87291 10.8305 4.89262 10.4104 4.81254C9.99025 4.73246 9.42089 4.60675 8.93058 4.50641C8.79046 4.47627 8.59684 4.39467 8.50163 4.42122C7.63732 4.71725 6.8069 4.23574 5.86161 4.42349L5.54528 5.04748C3.78748 4.4064 1.80417 4.17623 0 3.41627C3.16813 2.53467 6.02461 1.73808 9.40476 1.71526L9.90267 2.13684C10.0452 2.1196 10.1846 2.09436 10.3191 2.06147C11.2698 1.73377 12.1579 1.33911 13.3918 1.56398C13.6892 1.61379 14.0782 1.48162 14.4168 1.43269C14.8507 1.31442 15.3135 1.23784 15.7881 1.2058C17.6541 1.26576 19.4598 0.984095 21.3244 0.981876C21.8122 0.978584 22.3205 1.09952 22.852 1.10112C23.8878 1.05785 24.8778 0.916427 25.9833 0.872692C26.559 0.874628 27.1336 0.90369 27.7018 0.959571C32.121 0.683752 36.57 0.608697 41.0102 0.735036L41.3459 1.2976C41.6808 1.09324 42.0256 0.935465 42.3699 0.75695L42.888 0.924456C43.1199 0.782975 43.3604 0.63624 43.4818 0.614692L52.0875 0.494433L51.3111 1.18888C52.3663 1.59633 52.7177 0.982485 53.5479 0.717778C54.9923 0.635481 56.7234 0.51498 58.3421 0.431507C58.9501 0.722653 59.439 1.09206 59.772 1.51179C60.105 1.93152 60.2732 2.39055 60.264 2.85411C60.7246 2.43643 61.1941 2.02389 61.7661 1.52773L62.561 1.61046L63.5524 1.16328L63.4439 2.46991C63.159 2.58066 62.8309 2.70724 62.33 2.89718C64.0132 3.69941 65.8142 3.22086 67.4295 3.36024C67.5915 3.2537 67.732 3.13624 67.8481 3.01022C67.934 2.95782 67.8614 2.83393 67.8714 2.52293L66.9384 2.86089L66.8874 2.54514L68.1276 2.30356L68.3239 3.23501L72.5539 3.40857C72.6913 3.32473 72.9061 3.19373 73.2087 3.09323C73.6541 3.87271 74.8362 3.01487 75.4472 3.4305C75.6779 3.2372 75.8833 3.08036 75.9515 3.01772C77.8806 3.53327 79.8553 3.40074 81.7297 3.44509C83.604 3.48945 85.7091 3.34053 87.8947 3.27914L88.2757 3.55122C89.0188 3.2871 89.7619 3.02296 90.7727 2.65858L90.3889 3.3763L91.7418 3.476L91.1806 2.22053C91.7683 1.98729 92.3353 1.73612 92.8793 1.46803C93.2916 1.21447 93.6725 0.943466 94.0189 0.657126L94.3546 0.851782C93.4251 1.33481 92.4954 1.81781 91.5057 2.33752C91.969 2.76968 93.3717 2.7654 93.0578 3.49301C94.1217 3.52729 95.0976 3.53108 95.4029 2.80871L95.197 2.94484ZM113.939 7.00547L114.161 8.25805L114.423 8.28737C114.6 8.03226 114.785 7.77191 114.903 7.61565L116.818 8.24532C116.657 8.45887 116.514 8.65155 116.295 8.96395C117.589 8.41628 117.17 7.67288 117.618 7.10501L116.778 6.94488L116.136 7.80941L115.762 7.09165L113.939 7.00547ZM43.2374 2.43526C43.2536 1.64747 44.4899 1.97596 45.2244 1.71708C45.3157 1.52472 45.3981 1.32725 45.5221 1.0414C44.4116 1.24582 43.4138 1.42357 42.4163 1.61168L42.068 2.36023L43.2374 2.43526ZM83.6921 6.47375L82.1088 6.57771L81.6008 7.93884L82.5448 8.06719C82.7208 7.77063 82.8366 7.51075 82.9709 7.29219C83.1051 7.07364 83.4124 6.8021 83.7007 6.4685L83.6921 6.47375ZM204.198 8.45367L204.337 8.45273L204.335 8.36982L204.161 8.39171L204.198 8.45367Z" fill="#8974AA"/>
</svg>
