<svg width="272" height="12" viewBox="0 0 272 12" fill="none" xmlns="http://www.w3.org/2000/svg">
<path d="M88.9814 3.5338L89.9466 3.76173C89.6156 3.92006 89.3817 4.04028 89.1074 4.17946C89.7063 4.85831 90.3077 3.90788 90.7772 4.19608L91.5761 2.91435L91.8055 2.98698C91.6016 3.41161 91.414 3.83609 91.1869 4.32932L92.3519 4.35031C92.7496 3.83695 93.1552 3.30486 93.5447 2.78535L94.4443 2.54747L94.3296 2.06963C94.7354 1.99149 95.1492 1.90707 95.3928 1.86765L95.1267 2.89602L95.4561 3.53369C95.5965 3.63819 95.7946 3.78571 95.957 3.75943C96.9176 3.6233 97.9066 3.65513 98.8499 3.85252L98.493 2.60567C98.7462 2.83892 98.9214 3.11557 99.0035 3.41171C99.0856 3.70785 99.0721 4.0146 98.9642 4.30547C99.9182 4.36561 100.802 4.59424 101.606 4.01517C101.798 3.86426 102.239 3.9102 102.556 3.86393C102.527 4.05074 102.506 4.24367 102.446 4.54267C102.917 4.45154 103.233 4.38042 103.476 4.32857L103.812 3.54832L104.188 3.59483L104.042 4.50399C104.535 4.33181 104.997 4.17236 105.45 4.00675L105.711 4.48332C106.556 4.40138 107.426 4.313 108.215 4.22533L107.597 2.52681L106.28 3.55806C106.016 2.5032 105.114 3.02093 104.438 3.033C104.992 2.59912 104.166 2.41351 104.16 2.06533C104.303 1.88997 104.454 1.70831 104.686 1.45135L103.894 1.36491L103.516 0.286194C104.16 0.299274 104.804 0.349637 105.431 0.325552C107.139 0.248561 108.88 0.146421 110.589 0.0694307C111.091 0.0761039 111.592 0.104987 112.089 0.155932C112.706 0.241204 113.337 0.246283 113.955 0.170894C115.321 -0.026162 116.72 -0.0530104 118.099 0.0914375C118.986 0.0899651 119.892 0.200273 120.748 0.248823C122.134 0.286569 123.526 0.280726 125.041 0.292473C124.86 0.623624 124.742 0.8423 124.6 1.11714L125.639 1.37551L125.476 2.66416L127.674 3.07419L126.824 2.02442L126.665 0.887808L125.664 0.927604C125.863 0.708227 125.949 0.514684 126.127 0.450957C126.532 0.298209 127.04 0.0388414 127.101 0.709909C127.889 0.584933 128.501 -0.222548 129.474 0.428184L128.248 1.07309L128.612 1.83481L127.374 1.82066L129.263 3.11639C129.671 2.26714 130 1.56783 130.376 0.768603L131.53 1.92149L132.446 0.825309L134.095 1.03486L131.59 2.99673L132.605 3.274C132.714 2.98701 132.799 2.75618 132.885 2.55023L134.136 2.83166L134.78 1.06624C134.857 0.854137 134.943 0.64819 135.036 0.411078L139.626 0.209647C139.479 0.627561 139.402 0.85209 139.363 0.98301L140.25 2.67299L139.266 2.77479L137.772 2.12855L137.603 2.26062C137.562 2.16008 137.508 2.06267 137.443 1.96971C137.301 1.84605 137.146 1.73096 136.981 1.62548L136.605 2.89111C136.953 2.78238 137.115 2.73123 137.318 2.67351L137.237 3.14062L138.412 3.25478L137.23 4.5336C138.369 4.90306 138.869 4.20848 139.806 3.7775L139.247 4.80838C140.88 4.62633 142.433 4.93623 143.946 4.35724C144.433 5.17386 145.714 4.87671 146.553 4.83836C149.074 4.66727 151.587 4.90668 154.07 4.87894C156.195 4.84188 158.313 4.86084 160.48 4.90425C161.213 4.91034 161.944 5.23359 162.68 4.92251L163.535 4.94618L164.868 3.90236C164.23 3.75864 164.321 2.96814 163.313 3.03906L163.83 3.69372C163.213 3.82343 162.637 3.94656 161.923 4.08956L162.653 4.77973L161.285 3.95828L161.42 3.7395L159.835 3.49204L159.817 3.40513L162.322 3.18445L162.616 1.9071L161.24 1.05466L163.925 0.89459C164.275 0.872904 164.699 0.931401 164.933 0.798787C166.085 0.13586 167.356 0.591239 168.591 0.456166L169.018 1.08054L169.682 0.863346L170.521 1.27897C170.777 1.07775 171.002 0.901641 171.325 0.737164L172.162 1.53212L171.778 2.32521L172.449 2.50595C173.335 1.52197 173.341 1.4162 172.57 0.658006L174.881 1.01732L175.027 0.524769C176.519 0.617556 177.955 0.754393 179.389 0.791716C180.081 0.804372 180.786 0.605461 181.486 0.586959C182.041 0.602489 182.594 0.645481 183.142 0.715647C183.62 0.765158 184.104 0.771412 184.584 0.734258C186.819 0.573507 189.072 0.631299 191.29 0.90624C192.04 0.961925 192.844 0.836822 193.561 0.880354C194.194 0.872176 194.825 0.929454 195.438 1.05064C195.855 1.20821 196.236 1.41709 196.565 1.66893C196.782 1.49916 197.135 1.22247 197.626 0.950817L199.306 1.47729C199.394 1.40813 199.741 1.22478 200.136 1.00371L202.103 1.24161C201.431 1.88172 201.449 1.98106 202.126 2.48512L201.97 3.30109C201.439 3.64149 200.932 3.96305 200.191 4.42964C201.161 4.46477 201.734 4.63389 201.465 5.51302C202.091 5.02256 202.551 4.76361 203.049 4.42349L203.642 4.75416C203.929 5.28647 204.4 5.24508 204.933 5.00416C205.29 4.82772 205.577 4.5816 205.767 4.2913C205.956 4.001 206.04 3.67711 206.011 3.35317L205.102 2.67698C205.234 2.33382 205.383 1.99053 205.57 1.54118C206.343 1.49095 207.271 1.47045 208.124 1.39465C208.978 1.31885 210.141 1.66946 211.228 1.42374C211.52 1.35903 211.916 1.61679 212.301 1.74405C212.916 1.51485 213.561 1.18588 214.286 1.65221L214.121 2.84139L214.781 2.8792C215.009 2.42328 215.197 2.03607 215.44 1.51783L218.663 1.83192L219.174 2.57997C219.394 2.1925 219.505 1.98012 219.663 1.71757L220.801 1.6455C220.595 1.93334 220.444 2.13988 220.285 2.35268L221.507 2.78361L221.553 1.73851L222.815 2.16286L225.511 1.77883L225.006 2.62892L225.951 2.68291C226.255 3.7045 226.285 4.76171 226.041 5.79138C228.307 5.91387 230.582 5.88374 232.84 5.70138C234.657 6.17068 236.867 5.89038 239.012 6.03969C241.156 6.18901 243.345 6.08918 245.512 6.10772C245.543 5.12493 246.575 5.88089 247.165 5.63325L247.492 4.8469L248.074 5.02218C248.592 4.88088 249.03 4.7527 249.564 4.59883L249.646 5.95997L251.46 6.25518L252.006 5.8276C252.166 5.84724 252.324 5.87498 252.48 5.91058C252.833 6.07973 253.221 6.2025 253.627 6.27376C256.551 6.32926 259.484 6.35356 262.4 6.37805C262.783 5.97674 263.143 5.60674 263.663 5.07367L264.139 6.16402L266.166 6.58172L265.374 4.67951L264.662 4.5302C264.723 4.30581 264.793 4.08755 264.909 3.75696L265.895 4.24591C267.493 3.46097 269.028 4.12548 270.598 4.43525L270.974 4.97301L269.886 5.61049L270.667 5.95819L270.239 6.17957L270.023 7.72359L270.778 7.13252L272 8.04229C271.112 8.47284 270.313 8.87151 269.401 9.32092L268.463 8.79426C268.26 8.85199 268.042 8.92229 267.799 8.99901C267.859 9.17883 267.911 9.35251 267.979 9.5136C267.725 9.86404 267.082 9.85093 266.268 9.46622L266.316 8.97455L265.281 8.92756C264.838 8.75728 264.335 8.40717 264.092 8.49633C263.29 8.7458 262.584 8.41612 261.819 8.46006C261.054 8.50399 260.191 8.47418 259.328 8.49409C258.465 8.51401 257.641 8.46517 256.747 8.53511C255.226 8.62913 253.746 8.75388 252.272 8.79773C251.851 8.76861 251.435 8.70552 251.031 8.60951C250.425 9.29465 249.842 9.96509 249.284 10.6208L245.294 10.6429L245.371 9.92711L246.639 8.93359C244.812 8.68367 242.938 8.72531 241.136 9.05589L241.269 10.087C240.908 10.37 240.522 10.6718 240.122 11.0733L239.92 10.2728L238.45 10.0617C239.388 9.66802 240.026 9.39508 240.665 9.12216C239.556 8.8276 238.342 8.87381 237.279 9.25099L238.036 9.65489C237.907 9.7555 237.763 9.86867 237.602 9.99444L238.437 11.0816L236.808 11.0957L236.951 10.4292L236.219 10.0686L235.833 10.7995L235.093 10.3831C235.394 9.90785 235.663 9.4951 235.948 9.05734C234.348 8.87221 234.21 8.89202 233.8 9.20028L232.314 8.97687L231.141 11.1573L232.266 10.7682L232.39 10.8604L231.706 11.3203C229.945 11.4459 228.176 11.5007 226.407 11.4844C224.696 11.437 222.931 12.0368 221.285 11.1059C220.987 11.3427 220.616 11.5195 220.206 11.6206C219.796 11.7218 219.359 11.7442 218.934 11.6859C216.697 11.4914 214.442 11.4547 212.197 11.5764C210.727 11.6929 209.245 11.6912 207.775 11.5712C207.114 11.5209 206.415 12.0555 205.653 11.3781L206.651 10.6854L204.76 9.27779C203.634 9.17071 202.502 9.10994 201.368 9.09575C200.692 9.18464 200.035 9.34302 199.414 9.56661L198.168 9.12968L196.999 9.32635C196.882 9.58233 196.78 9.81332 196.67 10.0381L196.035 10.0187L196.104 9.35901C195.908 9.33583 195.793 9.2995 195.729 9.32493C195.051 9.65417 195.116 10.0951 195.297 10.6594L194.012 9.4331L192.226 10.1637L192.245 10.3501L193.183 10.3979L192.758 11.6515L191.922 11.3727L191.808 11.7779L189.036 11.6402L188.157 10.8022C187.589 10.4402 188.094 9.59006 186.966 9.37597C186.802 9.71941 186.628 10.0443 186.471 10.3441L187.517 11.8337L185.438 11.746L184.939 10.7367C184.53 11.0574 184.07 11.3164 183.499 11.7006L182.6 10.2098C182.121 10.7114 181.689 11.138 181.097 11.7526L180.975 10.4353L179.347 10.4494C179.13 10.6192 178.98 10.8879 178.781 11.1197L179.142 11.6949L179.09 12L178.232 11.8396L178.417 10.8119L176.138 9.98593L176.066 11.3795C176.727 11.4795 176.979 10.588 177.716 11.2097C177.316 11.6236 176.999 12.0741 176.083 11.8831L175.231 10.7462L173.636 10.331C173.443 10.4819 173.25 10.6328 172.767 10.9106C172.931 10.5299 172.997 10.1499 173.095 10.1491C173.224 10.1531 173.353 10.1348 173.472 10.0955C173.591 10.0562 173.697 9.99698 173.781 9.92218C173.866 9.84738 173.928 9.75895 173.961 9.66342C173.995 9.5679 174 9.46775 173.976 9.3704L169.354 9.54722L169.283 9.23693C169.132 9.44345 168.973 9.64381 168.718 9.96937L167.839 9.09398C167.291 9.44695 166.72 9.80635 166.068 10.2286L165.469 9.12071L164.53 9.85642L163.931 9.19002L162.051 9.2747L161.997 9.43063C161.583 9.31485 161.156 9.22701 160.722 9.16808C159.458 9.06089 158.185 8.95997 156.906 8.93996C156.026 8.93514 155.101 9.0924 154.254 9.11217C151.298 9.09426 148.332 9.02045 145.366 8.97152L139.826 8.87027C139.405 8.85613 138.986 8.93074 138.617 9.08594L139.902 9.44172L139.731 10.3325L138.501 10.2871C138.666 10.0059 138.753 9.84969 138.84 9.69347C138.782 9.65044 138.764 9.56353 138.675 9.57052C138.052 9.37693 137.446 9.17073 136.816 9.02072C136.186 8.87072 135.677 8.65126 135.354 8.81574C134.618 9.10194 133.979 8.85874 133.302 8.84594C132.162 8.81852 131.03 8.83457 129.93 8.78813C127.779 8.74458 125.635 8.66984 123.493 8.63244C122.989 8.64346 122.486 8.67898 121.988 8.73877C121.858 8.75233 121.673 8.84722 121.582 8.80447C120.44 8.27336 120.013 8.93623 119.436 9.47602C119.026 9.78857 118.579 10.0714 118.1 10.3209L119.916 10.7529L120.911 10.3649L120.721 9.8069L120.981 9.75489L121.37 10.5226L123.801 9.87973C123.64 10.4097 123.509 10.815 123.339 11.3389L122.525 10.8919C122.072 11.1112 121.559 11.2468 121.025 11.2882C120.492 11.3295 119.953 11.2753 119.451 11.13L114.565 11.1724C114.573 10.2955 114.573 10.2955 115.355 9.85961L115.613 8.82509L114.309 8.35756C114.152 8.65742 114.026 8.88237 113.9 9.1322L114.508 9.41301C114.005 9.94595 113.518 10.4787 112.983 11.0492C112.085 10.9451 111.092 11.4077 110.257 10.7619C110.458 10.6047 110.716 10.4781 110.853 10.3837L112.49 10.8172L111.979 10.0443C112.185 9.78136 112.352 9.53737 112.56 9.3117C112.767 9.08604 113.055 8.82238 113.319 8.56514C111.647 8.41173 111.647 8.41171 111.02 8.86488L111.791 9.61065L110.522 9.64651C110.243 10.0034 109.892 10.4044 109.622 10.755L109.376 11.124L108.376 10.7844L108.379 10.9337L99.1086 10.815L98.7287 10.5322L93.8121 10.6619L93.9549 10.0201C92.9165 10.3772 91.7779 10.5323 90.6404 10.4717C89.1971 10.4111 87.7507 10.4112 86.3077 10.472L87.2757 9.96606C86.9179 9.55252 86.5761 9.56793 86.1425 9.90749C85.9097 10.0898 85.5324 10.3854 85.328 10.3436C83.8727 10.0329 82.4386 10.4371 81.0116 10.3437C79.5847 10.2504 78.1719 10.045 76.803 10.0071C75.8655 9.95923 74.9143 10.0483 73.8154 10.0765C73.931 9.72104 73.9931 9.5588 74.0468 9.378L73.2937 9.17308C73.8167 8.82653 74.2994 8.49901 74.9189 8.08944L71.6757 7.55165L71.7982 9.7768L70.1797 9.89655L70.0531 9.65512C70.2859 9.47276 70.5685 9.33976 70.8665 9.15684C70.8433 8.78393 70.8029 8.36142 70.7857 7.8703L69.6054 7.45766C69.4313 7.73278 69.2891 7.97032 69.1468 8.20786L68.9257 8.14136C69.1693 7.66043 68.7679 7.5333 68.2867 7.49394C67.9014 7.43923 67.5063 7.44055 67.1221 7.49783C66.1487 7.70525 65.2006 7.96842 64.1709 8.21987L63.9351 7.35753C63.7746 7.48329 63.5874 7.49111 63.5642 7.55972C63.4086 8.18443 63.1687 8.79502 62.8485 9.38173L62.1845 7.37892L60.6282 7.33644L60.5387 8.66798L58.714 8.64648L58.831 9.24865C58.7748 9.29266 58.7347 9.32411 58.7186 9.33669C57.7577 9.34501 56.8056 9.38436 55.8601 9.3428C54.6725 9.16909 53.4644 9.092 52.2561 9.11284C51.1204 9.28022 49.9542 9.29243 48.8118 9.1489C46.7125 8.81264 44.536 9.14241 42.4023 8.70694C40.9707 8.56776 39.5214 8.57824 38.0946 8.73806L37.3869 7.90469C36.9614 8.23796 36.5098 8.47818 36.1474 8.69897C35.3407 7.79183 35.3407 7.79182 33.6022 8.03075L33.3671 8.53028L21.283 7.75194L21.0731 6.52871L19.6907 7.08172L18.2573 6.64016C18.185 6.69675 18.0153 6.76664 17.8621 6.8488C17.5099 6.74573 17.1652 6.6283 16.8294 6.49707C16.4785 6.33546 16.1406 6.15773 15.8179 5.96484C15.5294 6.23213 15.15 6.43348 14.7212 6.54687C14.2923 6.66027 13.8306 6.68133 13.3864 6.60776C12.5687 6.42829 11.5572 6.77907 10.8839 6.0449C10.7011 5.84749 10.1233 5.87115 9.73066 5.77505C9.33796 5.67896 8.80578 5.5281 8.34748 5.4077C8.21651 5.37152 8.03554 5.2736 7.94654 5.30547C7.13867 5.6607 6.36246 5.08289 5.47889 5.30819L5.18321 6.05698C3.54019 5.28768 1.68638 5.01148 0 4.09953C2.96128 3.0416 5.63125 2.08569 8.7907 2.05832L9.2561 2.56421C9.38933 2.54352 9.51965 2.51324 9.64534 2.47377C10.534 2.08052 11.3641 1.60693 12.5174 1.87677C12.7954 1.93655 13.159 1.77794 13.4755 1.71923C13.881 1.5773 14.3137 1.48541 14.7573 1.44696C16.5015 1.51891 18.1892 1.18091 19.9321 1.17825C20.3881 1.1743 20.8631 1.31943 21.3599 1.32134C22.3281 1.26943 23.2534 1.09971 24.2868 1.04723C24.8249 1.04955 25.362 1.08443 25.8931 1.15148C30.0237 0.820502 34.1822 0.730436 38.3325 0.882043L38.6463 1.55712C38.9594 1.31189 39.2817 1.12256 39.6035 0.908341L40.0877 1.10935C40.3045 0.93957 40.5293 0.763488 40.6428 0.73763L48.6866 0.59332L47.9609 1.42666C48.9472 1.9156 49.2757 1.17898 50.0517 0.861334C51.4018 0.762577 53.0198 0.617976 54.5328 0.517809C55.1011 0.867184 55.5581 1.31048 55.8694 1.81415C56.1806 2.31782 56.3379 2.86866 56.3292 3.42493C56.7598 2.92372 57.1986 2.42867 57.7333 1.83328L58.4763 1.93255L59.403 1.39594L59.3015 2.96389C59.0352 3.09679 58.7285 3.24869 58.2604 3.47661C59.8337 4.43929 61.5171 3.86503 63.0268 4.03229C63.1783 3.90444 63.3096 3.76348 63.4182 3.61227C63.4985 3.54939 63.4306 3.40071 63.44 3.02752L62.5679 3.43307L62.5202 3.05416L63.6794 2.76428L63.8629 3.88201L67.8167 4.09029C67.9452 3.98968 68.1459 3.83247 68.4287 3.71187C68.845 4.64726 69.9499 3.61785 70.5211 4.1166C70.7367 3.88464 70.9287 3.69644 70.9925 3.62126C72.7956 4.23993 74.6414 4.08089 76.3934 4.13411C78.1453 4.18734 80.113 4.00863 82.1558 3.93497L82.512 4.26146C83.2066 3.94452 83.9011 3.62756 84.8459 3.19029L84.4872 4.05156L85.7518 4.17121L85.2272 2.66464C85.7765 2.38475 86.3065 2.08335 86.815 1.76164C87.2004 1.45737 87.5564 1.13216 87.8802 0.788551L88.194 1.02214C87.3251 1.60177 86.4562 2.18137 85.5311 2.80502C85.9642 3.32362 87.2753 3.31848 86.9819 4.19161C87.9763 4.23275 88.8885 4.23729 89.1739 3.37045L88.9814 3.5338ZM106.5 8.40657L106.707 9.90966L106.952 9.94485C107.117 9.63871 107.291 9.32629 107.401 9.13878L109.19 9.89439C109.04 10.1506 108.906 10.3819 108.701 10.7567C109.911 10.0995 109.52 9.20746 109.939 8.52601L109.154 8.33386L108.554 9.37129L108.204 8.50998L106.5 8.40657ZM40.4143 2.92231C40.4295 1.97697 41.5851 2.37115 42.2716 2.06049C42.3569 1.82967 42.434 1.59271 42.5498 1.24968C41.5119 1.49498 40.5793 1.70829 39.6468 1.93401L39.3213 2.83228L40.4143 2.92231ZM78.2277 7.7685L76.7477 7.89325L76.2729 9.52661L77.1553 9.68063C77.3198 9.32475 77.428 9.01289 77.5535 8.75063C77.679 8.48837 77.9662 8.16252 78.2357 7.76221L78.2277 7.7685ZM190.865 10.1444L190.996 10.1433L190.994 10.0438L190.831 10.0701L190.865 10.1444Z" fill="#FCBDBD"/>
</svg>
